<svg width="199" height="94" viewBox="0 0 199 94" fill="none" xmlns="http://www.w3.org/2000/svg">
<path d="M1 89.9058L21.2508 71.6307L33.1049 58.7887L44.465 42.9833L54.8374 28.1656L59.7766 19.769L64.7158 11.3723L66.6915 5.44529V1H65.7036L64.2219 2.97568L59.2827 14.8298L50.3921 39.0319L44.959 56.3191L41.5015 67.1854L39.0319 77.0638L37.5501 85.9544L37.0562 92.3754L38.538 88.424L41.5015 82.9909L44.465 75.5821L45.9468 69.655L47.9225 65.7036L49.4042 63.234L51.8738 63.728L56.3191 66.1976L59.2827 66.6915L63.234 67.1854L67.1854 66.1976L76.076 61.2583L83.9787 55.8252L90.8936 50.3921L99.2903 42.4894L105.217 36.5623L109.663 31.1292L111.638 27.6717L113.614 23.7204L117.071 16.3115L114.602 17.2994L112.132 20.7568L109.169 26.6839L106.699 37.5501L104.723 43.4772L101.76 52.3678L100.772 58.2948L99.7842 64.2219V72.1246V79.0395L101.266 85.4605L102.748 89.4118" stroke="white" stroke-width="2" stroke-linecap="round" stroke-linejoin="round"/>
<path d="M123.986 54.3433L126.95 51.8737L135.347 47.4284L147.201 42.4892L162.512 37.056L174.86 32.1168L197.087 24.708" stroke="url(#paint0_linear_1277_474)" stroke-width="2" stroke-linecap="round" stroke-linejoin="round"/>
<defs>
<linearGradient id="paint0_linear_1277_474" x1="122.011" y1="55.3311" x2="229.685" y2="11.8661" gradientUnits="userSpaceOnUse">
<stop stop-color="white"/>
<stop offset="1" stop-color="white" stop-opacity="0.24"/>
</linearGradient>
</defs>
</svg>
